<svg xmlns="http://www.w3.org/2000/svg" width="216" height="216" fill="none"><rect width="203" height="203" x="6.5" y="6.5" stroke="#008BDC" stroke-width="13" rx="101.5"/><path fill="#008BDC" d="M107.765 155.782q-10.254 0-18.266-3.525-7.965-3.571-12.589-9.797-4.578-6.272-4.715-14.466h19.96q.183 3.433 2.243 6.043 2.105 2.563 5.585 3.982t7.828 1.42q4.533 0 8.012-1.603t5.447-4.44q1.97-2.838 1.969-6.547 0-3.753-2.106-6.638-2.06-2.93-5.951-4.578-3.846-1.648-9.156-1.648h-8.744V99.428h8.744q4.486 0 7.92-1.557 3.479-1.557 5.402-4.303 1.922-2.793 1.922-6.5 0-3.525-1.694-6.181-1.648-2.7-4.669-4.212-2.976-1.51-6.958-1.51-4.029 0-7.371 1.464-3.342 1.42-5.356 4.075c-2.014 2.655-2.06 3.845-2.152 6.226H74.072q.137-8.103 4.624-14.283 4.486-6.18 12.085-9.66 7.645-3.525 17.259-3.525 9.706 0 16.984 3.525 7.28 3.525 11.308 9.522 4.074 5.952 4.028 13.368.046 7.874-4.898 13.139-4.898 5.264-12.773 6.683v.733q10.347 1.328 15.748 7.187 5.448 5.814 5.402 14.558.047 8.012-4.623 14.237-4.624 6.227-12.773 9.797-8.148 3.571-18.678 3.571"/></svg>